<svg xmlns="http://www.w3.org/2000/svg" xmlns:xlink="http://www.w3.org/1999/xlink" version="1.1" id="Layer_1" x="0px" y="0px" width="100px" height="100px" viewBox="0 0 100 100" enable-background="new 0 0 100 100" xml:space="preserve">
<polygon points="35.727,35.348 50.732,67.594 30.913,90.203 "/>
<polygon points="20.863,57.959 34.82,35.348 29.796,89.924 "/>
<polygon points="2.229,49.864 19.607,58.239 28.679,91.065 "/>
<polygon points="84.422,72.426 51.765,68.568 30.913,91.599 "/>
<polygon points="81.112,14.413 69.017,36.255 37.682,32.976 "/>
<polygon points="48.917,13.17 35.727,31.929 32.167,3.568 "/>
<polygon points="21.351,28.229 2.857,47.143 34.192,33.265 "/>
<polygon points="30.524,3.568 2.229,46.076 20.54,27.266 "/>
<polygon points="85.418,70.316 69.017,37.686 37.123,34.022 "/>
<polygon points="80.533,12.877 49.826,12.528 33.284,2.912 "/>
<polygon points="86.604,69.825 70.412,37.162 82.278,14.413 "/>
<polygon points="91.28,43.429 83.673,13.714 97.608,50.703 "/>
<polygon points="88.695,70.316 91.557,45.652 97.771,52.562 "/>
<polygon points="31.959,93.413 67.482,95.088 63.219,88.422 "/>
<polygon points="85.767,74.293 68.878,94.719 64.656,87.905 "/>
<polygon points="31.4,4.501 34.541,31.929 22.258,27.043 "/>
<polygon points="33.634,34.79 2.857,48.329 19.955,56.424 "/>
<polygon points="36.705,35.348 51.849,66.963 84.978,71.362 "/>
<polygon points="31.959,92.437 84.978,73.456 63.505,87.271 "/>
<polygon points="36.705,31.929 50.174,13.714 79.905,13.923 "/>
<polygon points="87.581,69.825 82.976,14.413 90.233,44.422 "/>
</svg>